<svg id="Capa_1" enable-background="new 0 0 511.629 511.629" height="512" viewBox="0 0 511.629 511.629" width="512" xmlns="http://www.w3.org/2000/svg" >
<g style="fill:#219ebc">
<path d="m429.559 359.19 58.992 3.532c13.957-30.341 21.855-63.357 23.076-97.55l-40.238 20.126c-2.153 1.078-4.443 1.588-6.697 1.588-5.502 0-10.799-3.037-13.428-8.293-3.706-7.409-.703-16.42 6.705-20.125l52.752-26.385c-3.104-33.971-12.843-66.544-28.604-96.197l-24.866 37.674c-2.885 4.37-7.662 6.739-12.533 6.739-2.836 0-5.704-.804-8.249-2.483-6.914-4.563-8.819-13.867-4.256-20.781l32.517-49.265c-8.283-11.637-17.591-22.671-27.895-32.975-13.795-13.794-28.89-25.813-45.002-35.957l-2.696 45.022c-.478 7.964-7.085 14.104-14.959 14.104-.302 0-.605-.009-.911-.026-8.27-.495-14.571-7.601-14.076-15.87l3.532-58.992c-30.342-13.956-63.357-21.854-97.55-23.076l20.124 40.236c3.707 7.409.704 16.42-6.705 20.126-2.154 1.077-4.443 1.587-6.698 1.587-5.502 0-10.799-3.038-13.427-8.293l-26.382-52.748c-33.97 3.102-66.543 12.842-96.195 28.604l37.67 24.864c6.914 4.563 8.819 13.868 4.256 20.781-2.885 4.37-7.662 6.739-12.533 6.739-2.836 0-5.704-.804-8.249-2.483l-49.261-32.515c-11.638 8.285-22.673 17.593-32.977 27.898-13.793 13.793-25.811 28.887-35.954 44.998l45.018 2.695c8.27.496 14.571 7.601 14.076 15.87-.477 7.964-7.085 14.104-14.959 14.104-.302 0-.605-.009-.91-.026l-58.988-3.532c-13.957 30.34-21.857 63.356-23.077 97.548l40.234-20.124c7.408-3.708 16.419-.705 20.125 6.705 3.706 7.409.704 16.42-6.705 20.125l-52.747 26.384c3.102 33.969 12.841 66.543 28.602 96.195l24.863-37.67c4.564-6.915 13.868-8.819 20.782-4.256 6.914 4.564 8.819 13.867 4.256 20.781l-32.515 49.262c8.284 11.638 17.593 22.672 27.897 32.978 13.793 13.793 28.887 25.81 44.998 35.954l2.696-45.021c.495-8.27 7.614-14.535 15.87-14.077 8.27.496 14.571 7.601 14.076 15.87l-3.533 58.991c30.342 13.957 63.358 21.856 97.552 23.078l-20.126-40.238c-3.705-7.409-.703-16.42 6.706-20.126 7.409-3.705 16.42-.703 20.126 6.706l26.383 52.75c33.971-3.102 66.545-12.842 96.197-28.604l-37.674-24.866c-6.914-4.564-8.819-13.868-4.256-20.781 4.564-6.915 13.867-8.819 20.782-4.256l49.264 32.517c11.638-8.284 22.673-17.593 32.977-27.897 13.793-13.794 25.811-28.888 35.954-44.999l-45.022-2.696c-8.27-.496-14.572-7.6-14.077-15.87.497-8.27 7.619-14.536 15.872-14.078zm-292.717-52.008c-6.83-15.758-10.626-33.127-10.626-51.367s3.796-35.609 10.626-51.369l58.314 33.667c-1.645 5.621-2.542 11.558-2.542 17.702 0 6.145.897 12.08 2.541 17.701zm103.973 77.359c-36.32-4.205-68.113-23.479-88.939-51.398l58.312-33.665c8.193 8.558 18.754 14.821 30.627 17.723zm0-190.113c-11.873 2.902-22.434 9.166-30.627 17.723l-58.311-33.665c20.824-27.919 52.617-47.192 88.938-51.398zm30-67.341c36.32 4.206 68.113 23.479 88.938 51.398l-58.31 33.665c-8.193-8.557-18.754-14.82-30.627-17.723v-67.34zm0 257.454v-67.341c11.873-2.901 22.434-9.165 30.627-17.723l58.311 33.665c-20.825 27.921-52.618 47.194-88.938 51.399zm103.973-77.359-58.313-33.666c1.643-5.621 2.541-11.557 2.541-17.701 0-6.145-.897-12.081-2.542-17.702l58.314-33.667c6.83 15.76 10.626 33.129 10.626 51.369s-3.796 35.609-10.626 51.367z" />
</g></svg>